# xmcd
#
# Track frame offsets:
#	150
#	16766
#	33793
#	56862
#	73172
#	88384
#	106179
#	125729
#	146605
#	163206
#	182294
#	200269
#	214761
#	234152
#	253102
#
# Disc length: 3592 seconds
#
# Revision: 1
# Processed by: cddbd v1.5.2PL0 Copyright (c) Steve Scherf et al.
# Submitted via: audiograbber 1.83.01
#
DISCID=d20e060f
DTITLE=Taylor Swift - Cb90344
DYEAR=2009
DGENRE=
TTITLE0=The Outside
TTITLE1=Marys Song (Oh My My My)
TTITLE2=Fifteen
TTITLE3=Invisible
TTITLE4=I Heart
TTITLE5=A Perfectly Good Heart
TTITLE6=Cold As You
TTITLE7=Your Not Sorry
TTITLE8=A Place In This World
TTITLE9=Stay Beautiful
TTITLE10=Forever And Always
TTITLE11=Beautiful Eyes
TTITLE12=The Way I Loved You
TTITLE13=Tied Together With A Smile
TTITLE14=Last Christmas
EXTD=
EXTT0=
EXTT1=
EXTT2=
EXTT3=
EXTT4=
EXTT5=
EXTT6=
EXTT7=
EXTT8=
EXTT9=
EXTT10=
EXTT11=
EXTT12=
EXTT13=
EXTT14=
PLAYORDER=
